<?xml version="1.0" encoding="UTF-8"?>
<!--Generator: Apple Native CoreSVG 175-->
<!DOCTYPE svg
PUBLIC "-//W3C//DTD SVG 1.1//EN"
       "http://www.w3.org/Graphics/SVG/1.1/DTD/svg11.dtd">
<svg version="1.1" xmlns="http://www.w3.org/2000/svg" xmlns:xlink="http://www.w3.org/1999/xlink" width="3300" height="2200">
 <!--glyph: "uni10098E.medium", point size: 100.0, font version: "17.3d3e1", template writer version: "65.1"-->
 <style>.hierarchical-0:secondary {fill:#4D4D4D}
.hierarchical-1:primary {fill:#212121}

.SFSymbolsPreview212121 {fill:#212121;opacity:1.0}
.SFSymbolsPreview4D4D4D {fill:#4D4D4D;opacity:1.0}
</style>
 <g id="Notes">
  <rect height="2200" id="artboard" style="fill:white;opacity:1" width="3300" x="0" y="0"/>
  <line style="fill:none;stroke:black;opacity:1;stroke-width:0.5;" x1="263" x2="3036" y1="292" y2="292"/>
  <text style="stroke:none;fill:black;font-family:sans-serif;font-size:13;font-weight:bold;" transform="matrix(1 0 0 1 263 322)">Weight/Scale Variations</text>
  <text style="stroke:none;fill:black;font-family:sans-serif;font-size:13;text-anchor:middle;" transform="matrix(1 0 0 1 559.711 322)">Ultralight</text>
  <text style="stroke:none;fill:black;font-family:sans-serif;font-size:13;text-anchor:middle;" transform="matrix(1 0 0 1 856.422 322)">Thin</text>
  <text style="stroke:none;fill:black;font-family:sans-serif;font-size:13;text-anchor:middle;" transform="matrix(1 0 0 1 1153.13 322)">Light</text>
  <text style="stroke:none;fill:black;font-family:sans-serif;font-size:13;text-anchor:middle;" transform="matrix(1 0 0 1 1449.84 322)">Regular</text>
  <text style="stroke:none;fill:black;font-family:sans-serif;font-size:13;text-anchor:middle;" transform="matrix(1 0 0 1 1746.56 322)">Medium</text>
  <text style="stroke:none;fill:black;font-family:sans-serif;font-size:13;text-anchor:middle;" transform="matrix(1 0 0 1 2043.27 322)">Semibold</text>
  <text style="stroke:none;fill:black;font-family:sans-serif;font-size:13;text-anchor:middle;" transform="matrix(1 0 0 1 2339.98 322)">Bold</text>
  <text style="stroke:none;fill:black;font-family:sans-serif;font-size:13;text-anchor:middle;" transform="matrix(1 0 0 1 2636.69 322)">Heavy</text>
  <text style="stroke:none;fill:black;font-family:sans-serif;font-size:13;text-anchor:middle;" transform="matrix(1 0 0 1 2933.4 322)">Black</text>
  <line style="fill:none;stroke:black;opacity:1;stroke-width:0.5;" x1="263" x2="3036" y1="1903" y2="1903"/>
  <g transform="matrix(1 0 0 1 263 1933)">
   <path d="M9.24805 0.830078Q10.8691 0.830078 12.2949 0.214844Q13.7207-0.400391 14.8096-1.49414Q15.8984-2.58789 16.5186-4.01367Q17.1387-5.43945 17.1387-7.05078Q17.1387-8.66211 16.5186-10.0879Q15.8984-11.5137 14.8047-12.6074Q13.7109-13.7012 12.2852-14.3164Q10.8594-14.9316 9.23828-14.9316Q7.62695-14.9316 6.20117-14.3164Q4.77539-13.7012 3.69141-12.6074Q2.60742-11.5137 1.9873-10.0879Q1.36719-8.66211 1.36719-7.05078Q1.36719-5.43945 1.9873-4.01367Q2.60742-2.58789 3.69629-1.49414Q4.78516-0.400391 6.21094 0.214844Q7.63672 0.830078 9.24805 0.830078ZM9.24805-0.654297Q7.91992-0.654297 6.7627-1.14746Q5.60547-1.64062 4.73145-2.51953Q3.85742-3.39844 3.36426-4.56055Q2.87109-5.72266 2.87109-7.05078Q2.87109-8.37891 3.35938-9.54102Q3.84766-10.7031 4.72168-11.582Q5.5957-12.4609 6.75293-12.9541Q7.91016-13.4473 9.23828-13.4473Q10.5762-13.4473 11.7334-12.9541Q12.8906-12.4609 13.7695-11.582Q14.6484-10.7031 15.1465-9.54102Q15.6445-8.37891 15.6445-7.05078Q15.6445-5.72266 15.1514-4.56055Q14.6582-3.39844 13.7842-2.51953Q12.9102-1.64062 11.748-1.14746Q10.5859-0.654297 9.24805-0.654297ZM5.6543-7.05078Q5.6543-6.72852 5.85938-6.52832Q6.06445-6.32812 6.40625-6.32812L8.51562-6.32812L8.51562-4.20898Q8.51562-3.88672 8.71094-3.67676Q8.90625-3.4668 9.23828-3.4668Q9.56055-3.4668 9.77051-3.67676Q9.98047-3.88672 9.98047-4.20898L9.98047-6.32812L12.0898-6.32812Q12.4219-6.32812 12.627-6.52832Q12.832-6.72852 12.832-7.05078Q12.832-7.38281 12.627-7.58789Q12.4219-7.79297 12.0898-7.79297L9.98047-7.79297L9.98047-9.90234Q9.98047-10.2344 9.77051-10.4443Q9.56055-10.6543 9.23828-10.6543Q8.90625-10.6543 8.71094-10.4443Q8.51562-10.2344 8.51562-9.90234L8.51562-7.79297L6.40625-7.79297Q6.06445-7.79297 5.85938-7.58789Q5.6543-7.38281 5.6543-7.05078Z"/>
  </g>
  <g transform="matrix(1 0 0 1 281.867 1933)">
   <path d="M11.709 2.91016Q13.75 2.91016 15.5518 2.12891Q17.3535 1.34766 18.7305-0.0292969Q20.1074-1.40625 20.8887-3.20801Q21.6699-5.00977 21.6699-7.05078Q21.6699-9.0918 20.8887-10.8936Q20.1074-12.6953 18.7305-14.0723Q17.3535-15.4492 15.5469-16.2305Q13.7402-17.0117 11.6992-17.0117Q9.6582-17.0117 7.85645-16.2305Q6.05469-15.4492 4.68262-14.0723Q3.31055-12.6953 2.5293-10.8936Q1.74805-9.0918 1.74805-7.05078Q1.74805-5.00977 2.5293-3.20801Q3.31055-1.40625 4.6875-0.0292969Q6.06445 1.34766 7.86621 2.12891Q9.66797 2.91016 11.709 2.91016ZM11.709 1.25Q9.98047 1.25 8.47656 0.605469Q6.97266-0.0390625 5.83496-1.17676Q4.69727-2.31445 4.05762-3.81836Q3.41797-5.32227 3.41797-7.05078Q3.41797-8.7793 4.05762-10.2832Q4.69727-11.7871 5.83008-12.9297Q6.96289-14.0723 8.4668-14.7119Q9.9707-15.3516 11.6992-15.3516Q13.4277-15.3516 14.9316-14.7119Q16.4355-14.0723 17.5781-12.9297Q18.7207-11.7871 19.3652-10.2832Q20.0098-8.7793 20.0098-7.05078Q20.0098-5.32227 19.3701-3.81836Q18.7305-2.31445 17.5928-1.17676Q16.4551-0.0390625 14.9463 0.605469Q13.4375 1.25 11.709 1.25ZM7.17773-7.05078Q7.17773-6.69922 7.41211-6.47461Q7.64648-6.25 8.01758-6.25L10.8887-6.25L10.8887-3.36914Q10.8887-2.99805 11.1133-2.76855Q11.3379-2.53906 11.6895-2.53906Q12.0605-2.53906 12.29-2.76855Q12.5195-2.99805 12.5195-3.36914L12.5195-6.25L15.4004-6.25Q15.7715-6.25 16.001-6.47461Q16.2305-6.69922 16.2305-7.05078Q16.2305-7.42188 16.001-7.65137Q15.7715-7.88086 15.4004-7.88086L12.5195-7.88086L12.5195-10.752Q12.5195-11.1328 12.29-11.3623Q12.0605-11.5918 11.6895-11.5918Q11.3379-11.5918 11.1133-11.3574Q10.8887-11.123 10.8887-10.752L10.8887-7.88086L8.01758-7.88086Q7.63672-7.88086 7.40723-7.65137Q7.17773-7.42188 7.17773-7.05078Z"/>
  </g>
  <g transform="matrix(1 0 0 1 305.646 1933)">
   <path d="M14.9707 5.66406Q17.0605 5.66406 18.96 5.01465Q20.8594 4.36523 22.4512 3.19336Q24.043 2.02148 25.2197 0.429688Q26.3965-1.16211 27.0459-3.06641Q27.6953-4.9707 27.6953-7.05078Q27.6953-9.14062 27.0459-11.04Q26.3965-12.9395 25.2197-14.5312Q24.043-16.123 22.4512-17.2998Q20.8594-18.4766 18.9551-19.126Q17.0508-19.7754 14.9609-19.7754Q12.8711-19.7754 10.9717-19.126Q9.07227-18.4766 7.48535-17.2998Q5.89844-16.123 4.72168-14.5312Q3.54492-12.9395 2.90039-11.04Q2.25586-9.14062 2.25586-7.05078Q2.25586-4.9707 2.90527-3.06641Q3.55469-1.16211 4.72656 0.429688Q5.89844 2.02148 7.49023 3.19336Q9.08203 4.36523 10.9814 5.01465Q12.8809 5.66406 14.9707 5.66406ZM14.9707 3.84766Q13.1641 3.84766 11.5283 3.2959Q9.89258 2.74414 8.53516 1.74805Q7.17773 0.751953 6.17676-0.610352Q5.17578-1.97266 4.62891-3.6084Q4.08203-5.24414 4.08203-7.05078Q4.08203-8.86719 4.62891-10.5029Q5.17578-12.1387 6.17188-13.501Q7.16797-14.8633 8.52539-15.8594Q9.88281-16.8555 11.5186-17.4023Q13.1543-17.9492 14.9609-17.9492Q16.7773-17.9492 18.4131-17.4023Q20.0488-16.8555 21.4111-15.8594Q22.7734-14.8633 23.7695-13.501Q24.7656-12.1387 25.3174-10.5029Q25.8691-8.86719 25.8691-7.05078Q25.8789-5.24414 25.332-3.6084Q24.7852-1.97266 23.7842-0.610352Q22.7832 0.751953 21.4209 1.74805Q20.0586 2.74414 18.4229 3.2959Q16.7871 3.84766 14.9707 3.84766ZM9.19922-7.05078Q9.19922-6.66992 9.45801-6.4209Q9.7168-6.17188 10.1172-6.17188L14.0625-6.17188L14.0625-2.2168Q14.0625-1.81641 14.3115-1.55762Q14.5605-1.29883 14.9512-1.29883Q15.3516-1.29883 15.6104-1.55273Q15.8691-1.80664 15.8691-2.2168L15.8691-6.17188L19.8242-6.17188Q20.2246-6.17188 20.4785-6.4209Q20.7324-6.66992 20.7324-7.05078Q20.7324-7.46094 20.4785-7.71484Q20.2246-7.96875 19.8242-7.96875L15.8691-7.96875L15.8691-11.9141Q15.8691-12.3242 15.6104-12.583Q15.3516-12.8418 14.9512-12.8418Q14.5605-12.8418 14.3115-12.583Q14.0625-12.3242 14.0625-11.9141L14.0625-7.96875L10.1172-7.96875Q9.70703-7.96875 9.45312-7.71484Q9.19922-7.46094 9.19922-7.05078Z"/>
  </g>
  <text style="stroke:none;fill:black;font-family:sans-serif;font-size:13;font-weight:bold;" transform="matrix(1 0 0 1 263 1953)">Design Variations</text>
  <text style="stroke:none;fill:black;font-family:sans-serif;font-size:13;" transform="matrix(1 0 0 1 263 1971)">Symbols are supported in up to nine weights and three scales.</text>
  <text style="stroke:none;fill:black;font-family:sans-serif;font-size:13;" transform="matrix(1 0 0 1 263 1989)">For optimal layout with text and other symbols, vertically align</text>
  <text style="stroke:none;fill:black;font-family:sans-serif;font-size:13;" transform="matrix(1 0 0 1 263 2007)">symbols with the adjacent text.</text>
  <line style="fill:none;stroke:#00AEEF;stroke-width:0.5;opacity:1.0;" x1="776" x2="776" y1="1919" y2="1933"/>
  <g transform="matrix(1 0 0 1 776 1933)">
   <path d="M3.31055 0.15625Q3.70117 0.15625 3.91602-0.00976562Q4.13086-0.175781 4.26758-0.585938L5.52734-4.0332L11.2891-4.0332L12.5488-0.585938Q12.6855-0.175781 12.9004-0.00976562Q13.1152 0.15625 13.4961 0.15625Q13.8867 0.15625 14.1162-0.0585938Q14.3457-0.273438 14.3457-0.644531Q14.3457-0.869141 14.2383-1.17188L9.6582-13.3691Q9.48242-13.8184 9.17969-14.043Q8.87695-14.2676 8.4082-14.2676Q7.5-14.2676 7.17773-13.3789L2.59766-1.16211Q2.49023-0.859375 2.49023-0.634766Q2.49023-0.263672 2.70996-0.0537109Q2.92969 0.15625 3.31055 0.15625ZM6.00586-5.51758L8.37891-12.0898L8.42773-12.0898L10.8008-5.51758Z"/>
  </g>
  <line style="fill:none;stroke:#00AEEF;stroke-width:0.5;opacity:1.0;" x1="793.197" x2="793.197" y1="1919" y2="1933"/>
  <text style="stroke:none;fill:black;font-family:sans-serif;font-size:13;font-weight:bold;" transform="matrix(1 0 0 1 776 1953)">Margins</text>
  <text style="stroke:none;fill:black;font-family:sans-serif;font-size:13;" transform="matrix(1 0 0 1 776 1971)">Leading and trailing margins on the left and right side of each symbol</text>
  <text style="stroke:none;fill:black;font-family:sans-serif;font-size:13;" transform="matrix(1 0 0 1 776 1989)">can be adjusted by modifying the x-location of the margin guidelines.</text>
  <text style="stroke:none;fill:black;font-family:sans-serif;font-size:13;" transform="matrix(1 0 0 1 776 2007)">Modifications are automatically applied proportionally to all</text>
  <text style="stroke:none;fill:black;font-family:sans-serif;font-size:13;" transform="matrix(1 0 0 1 776 2025)">scales and weights.</text>
  <g transform="matrix(1 0 0 1 1289 1933)">
   <path d="M2.8418 1.86523L4.54102 3.57422Q5.18555 4.22852 5.90332 4.17969Q6.62109 4.13086 7.31445 3.35938L18.0078-8.42773L17.041-9.4043L6.42578 2.27539Q6.16211 2.57812 5.89355 2.61719Q5.625 2.65625 5.27344 2.30469L4.10156 1.14258Q3.75 0.791016 3.79395 0.522461Q3.83789 0.253906 4.14062-0.0195312L15.6152-10.8203L14.6387-11.7871L3.04688-0.898438Q2.30469-0.214844 2.25098 0.498047Q2.19727 1.21094 2.8418 1.86523ZM9.25781-16.3281Q8.94531-16.0254 8.90625-15.6348Q8.86719-15.2441 9.04297-14.9512Q9.21875-14.6777 9.55566-14.541Q9.89258-14.4043 10.3809-14.5215Q11.4746-14.7754 12.5977-14.7314Q13.7207-14.6875 14.7949-13.9844L14.209-12.5293Q13.9551-11.9043 14.0674-11.4404Q14.1797-10.9766 14.5801-10.5664L16.875-8.25195Q17.2363-7.88086 17.5781-7.82227Q17.9199-7.76367 18.3398-7.8418L19.4043-8.03711L20.0684-7.36328L20.0293-6.80664Q20-6.43555 20.1221-6.12305Q20.2441-5.81055 20.6055-5.44922L21.3672-4.70703Q21.7285-4.3457 22.1533-4.33105Q22.5781-4.31641 22.9297-4.66797L25.8398-7.58789Q26.1914-7.93945 26.1816-8.35449Q26.1719-8.76953 25.8105-9.13086L25.0391-9.89258Q24.6875-10.2539 24.3799-10.3857Q24.0723-10.5176 23.7109-10.4883L23.1348-10.4395L22.4902-11.0742L22.7344-12.1973Q22.832-12.6172 22.6953-12.9834Q22.5586-13.3496 22.1191-13.7891L19.9219-15.9766Q18.6719-17.2168 17.2607-17.8369Q15.8496-18.457 14.4189-18.4814Q12.9883-18.5059 11.665-17.959Q10.3418-17.4121 9.25781-16.3281ZM10.752-15.957Q11.6602-16.6211 12.7002-16.9043Q13.7402-17.1875 14.8047-17.085Q15.8691-16.9824 16.8701-16.5137Q17.8711-16.0449 18.7012-15.2051L21.1328-12.793Q21.3086-12.6172 21.3525-12.4512Q21.3965-12.2852 21.3379-12.0312L21.0156-10.5469L22.5195-9.0625L23.5059-9.12109Q23.6914-9.13086 23.7891-9.09668Q23.8867-9.0625 24.0332-8.91602L24.6094-8.33984L22.168-5.89844L21.5918-6.47461Q21.4453-6.62109 21.4062-6.71875Q21.3672-6.81641 21.377-7.01172L21.4453-7.98828L19.9512-9.47266L18.4277-9.21875Q18.1836-9.16992 18.042-9.2041Q17.9004-9.23828 17.7148-9.41406L15.7129-11.416Q15.5176-11.5918 15.4932-11.7529Q15.4688-11.9141 15.5859-12.1875L16.4648-14.2773Q15.293-15.3711 13.8281-15.791Q12.3633-16.2109 10.8398-15.7617Q10.7227-15.7324 10.6885-15.8057Q10.6543-15.8789 10.752-15.957Z"/>
  </g>
  <text style="stroke:none;fill:black;font-family:sans-serif;font-size:13;font-weight:bold;" transform="matrix(1 0 0 1 1289 1953)">Exporting</text>
  <text style="stroke:none;fill:black;font-family:sans-serif;font-size:13;" transform="matrix(1 0 0 1 1289 1971)">Symbols should be outlined when exporting to ensure the</text>
  <text style="stroke:none;fill:black;font-family:sans-serif;font-size:13;" transform="matrix(1 0 0 1 1289 1989)">design is preserved when submitting to Xcode.</text>
  <text id="template-version" style="stroke:none;fill:black;font-family:sans-serif;font-size:13;text-anchor:end;" transform="matrix(1 0 0 1 3036 1933)">Template v.3.0</text>
  <text style="stroke:none;fill:black;font-family:sans-serif;font-size:13;text-anchor:end;" transform="matrix(1 0 0 1 3036 1951)">Requires Xcode 13 or greater</text>
  <text id="descriptive-name" style="stroke:none;fill:black;font-family:sans-serif;font-size:13;text-anchor:end;" transform="matrix(1 0 0 1 3036 1969)">Generated from person.crop.square.filled.and.at.rectangle</text>
  <text style="stroke:none;fill:black;font-family:sans-serif;font-size:13;text-anchor:end;" transform="matrix(1 0 0 1 3036 1987)">Typeset at 100 points</text>
  <text style="stroke:none;fill:black;font-family:sans-serif;font-size:13;" transform="matrix(1 0 0 1 263 726)">Small</text>
  <text style="stroke:none;fill:black;font-family:sans-serif;font-size:13;" transform="matrix(1 0 0 1 263 1156)">Medium</text>
  <text style="stroke:none;fill:black;font-family:sans-serif;font-size:13;" transform="matrix(1 0 0 1 263 1586)">Large</text>
 </g>
 <g id="Guides">
  <g id="H-reference" style="fill:#27AAE1;stroke:none;" transform="matrix(1 0 0 1 339 696)">
   <path d="M0.993347 0L3.6377 0L29.3282-67.1326L30.0301-67.1326L30.0301-70.459L28.1227-70.459ZM11.6882-24.4797L46.9818-24.4797L46.2311-26.7288L12.4382-26.7288ZM55.1193 0L57.7637 0L30.6381-70.459L29.4327-70.459L29.4327-67.1326Z"/>
  </g>
  <line id="Baseline-S" style="fill:none;stroke:#27AAE1;opacity:1;stroke-width:0.5;" x1="263" x2="3036" y1="696" y2="696"/>
  <line id="Capline-S" style="fill:none;stroke:#27AAE1;opacity:1;stroke-width:0.5;" x1="263" x2="3036" y1="625.541" y2="625.541"/>
  <g id="H-reference" style="fill:#27AAE1;stroke:none;" transform="matrix(1 0 0 1 339 1126)">
   <path d="M0.993347 0L3.6377 0L29.3282-67.1326L30.0301-67.1326L30.0301-70.459L28.1227-70.459ZM11.6882-24.4797L46.9818-24.4797L46.2311-26.7288L12.4382-26.7288ZM55.1193 0L57.7637 0L30.6381-70.459L29.4327-70.459L29.4327-67.1326Z"/>
  </g>
  <line id="Baseline-M" style="fill:none;stroke:#27AAE1;opacity:1;stroke-width:0.5;" x1="263" x2="3036" y1="1126" y2="1126"/>
  <line id="Capline-M" style="fill:none;stroke:#27AAE1;opacity:1;stroke-width:0.5;" x1="263" x2="3036" y1="1055.54" y2="1055.54"/>
  <g id="H-reference" style="fill:#27AAE1;stroke:none;" transform="matrix(1 0 0 1 339 1556)">
   <path d="M0.993347 0L3.6377 0L29.3282-67.1326L30.0301-67.1326L30.0301-70.459L28.1227-70.459ZM11.6882-24.4797L46.9818-24.4797L46.2311-26.7288L12.4382-26.7288ZM55.1193 0L57.7637 0L30.6381-70.459L29.4327-70.459L29.4327-67.1326Z"/>
  </g>
  <line id="Baseline-L" style="fill:none;stroke:#27AAE1;opacity:1;stroke-width:0.5;" x1="263" x2="3036" y1="1556" y2="1556"/>
  <line id="Capline-L" style="fill:none;stroke:#27AAE1;opacity:1;stroke-width:0.5;" x1="263" x2="3036" y1="1485.54" y2="1485.54"/>
  <line id="left-margin-Ultralight-S" style="fill:none;stroke:#00AEEF;stroke-width:0.5;opacity:1.0;" x1="505.702" x2="505.702" y1="600.785" y2="720.121"/>
  <line id="right-margin-Ultralight-S" style="fill:none;stroke:#00AEEF;stroke-width:0.5;opacity:1.0;" x1="613.72" x2="613.72" y1="600.785" y2="720.121"/>
  <line id="left-margin-Regular-S" style="fill:none;stroke:#00AEEF;stroke-width:0.5;opacity:1.0;" x1="1394.79" x2="1394.79" y1="600.785" y2="720.121"/>
  <line id="right-margin-Regular-S" style="fill:none;stroke:#00AEEF;stroke-width:0.5;opacity:1.0;" x1="1504.9" x2="1504.9" y1="600.785" y2="720.121"/>
  <line id="left-margin-Black-S" style="fill:none;stroke:#00AEEF;stroke-width:0.5;opacity:1.0;" x1="2877.35" x2="2877.35" y1="600.785" y2="720.121"/>
  <line id="right-margin-Black-S" style="fill:none;stroke:#00AEEF;stroke-width:0.5;opacity:1.0;" x1="2989.45" x2="2989.45" y1="600.785" y2="720.121"/>
 </g>
 <g id="Symbols">
  <g id="Black-S" transform="matrix(1 0 0 1 2877.35 696)">
   <path class="hierarchical-0:secondary SFSymbolsPreview4D4D4D" d="M25 2.92969L87.1094 2.92969Q94.2871 2.92969 98.3154-1.09863Q102.344-5.12695 102.344-12.3047L102.344-58.1055Q102.344-65.2832 98.3154-69.3115Q94.2871-73.3398 87.1094-73.3398L25-73.3398Q17.8223-73.3398 13.7939-69.3115Q9.76562-65.2832 9.76562-58.1055L9.76562-12.3047Q9.76562-5.12695 13.7939-1.09863Q17.8223 2.92969 25 2.92969ZM27.2461-11.2305Q25.5859-11.2305 24.7559-11.9873Q23.9258-12.7441 23.9258-14.5508L23.9258-55.8594Q23.9258-57.7148 24.7559-58.4473Q25.5859-59.1797 27.2461-59.1797L84.8633-59.1797Q86.5723-59.1797 87.3779-58.4473Q88.1836-57.7148 88.1836-55.8594L88.1836-14.5508Q88.1836-12.7441 87.3779-11.9873Q86.5723-11.2305 84.8633-11.2305Z"/>
   <path class="hierarchical-1:primary SFSymbolsPreview212121" d="M33.2031-22.1191L50.0488-22.1191Q54.6875-22.1191 54.6875-26.6602L54.6875-43.75Q54.6875-48.291 50.0488-48.291L33.2031-48.291Q28.5645-48.291 28.5645-43.75L28.5645-26.6602Q28.5645-22.1191 33.2031-22.1191ZM41.6504-33.0078Q39.5996-33.0078 38.1836-34.5703Q36.7676-36.1328 36.7676-38.3789Q36.7676-40.5273 38.1836-42.0166Q39.5996-43.5059 41.6504-43.5059Q43.6523-43.5059 45.0684-42.0166Q46.4844-40.5273 46.4844-38.3789Q46.4844-36.1328 45.0684-34.5703Q43.6523-33.0078 41.6504-33.0078ZM33.3008-26.4648Q33.9844-27.6855 35.2539-28.5645Q36.5234-29.4434 38.1836-29.9316Q39.8438-30.4199 41.6504-30.4199Q43.457-30.4199 45.0928-29.9316Q46.7285-29.4434 47.998-28.5645Q49.2676-27.6855 49.9512-26.4648ZM71.2402-22.3145Q72.9004-22.3145 74.2432-22.5098Q75.5859-22.7051 76.5137-23.0469Q78.2227-23.7793 78.2227-25.2441Q78.2227-27.0996 76.416-27.0996Q76.2207-27.0996 76.001-27.0752Q75.7812-27.0508 75.5371-27.002Q74.7559-26.9043 73.9746-26.6602Q73.1934-26.416 71.6797-26.416Q67.3828-26.416 64.9658-28.7109Q62.5488-31.0059 62.5488-35.1074Q62.5488-37.8418 63.623-39.8926Q64.6973-41.9434 66.626-43.0664Q68.5547-44.1895 71.0938-44.1895Q74.9023-44.1895 77.2217-42.041Q79.541-39.8926 79.541-36.3281Q79.541-34.4238 79.0283-33.2275Q78.5156-32.0312 77.6855-32.0312Q77.002-32.0312 77.002-33.0078L77.002-40.1367Q77.002-41.0645 76.3916-41.6748Q75.7812-42.2852 74.9023-42.2852Q73.6816-42.2852 73.0957-41.2109L73.0957-41.2109Q71.4355-42.2852 70.1172-42.2852Q67.5781-42.2852 65.8936-40.2832Q64.209-38.2812 64.209-35.2051Q64.209-32.0801 65.8691-30.0781Q67.5293-28.0762 70.2148-28.0762Q72.3633-28.0762 73.7793-29.5898Q75-28.0762 77.2949-28.0762Q80.127-28.0762 81.8359-30.4199Q83.5449-32.7637 83.5449-36.5723Q83.5449-40.0391 81.958-42.6514Q80.3711-45.2637 77.5879-46.7285Q74.8047-48.1934 71.0938-48.1934Q67.2363-48.1934 64.3555-46.5576Q61.4746-44.9219 59.8633-41.9922Q58.252-39.0625 58.252-35.1562Q58.252-31.2988 59.8633-28.3936Q61.4746-25.4883 64.4043-23.9014Q67.334-22.3145 71.2402-22.3145ZM70.8496-32.2266Q69.873-32.2266 69.3359-33.0078Q68.7988-33.7891 68.7988-35.3027Q68.7988-36.7676 69.3359-37.5244Q69.873-38.2812 70.8984-38.2812Q71.875-38.2812 72.4609-37.5Q73.0469-36.7188 73.0469-35.3027Q73.0469-33.8867 72.4609-33.0566Q71.875-32.2266 70.8496-32.2266Z"/>
  </g>
  <g id="Regular-S" transform="matrix(1 0 0 1 1394.79 696)">
   <path class="hierarchical-0:secondary SFSymbolsPreview4D4D4D" d="M22.2168 0.390625L87.8906 0.390625Q94.1895 0.390625 97.2656-2.68555Q100.342-5.76172 100.342-11.9141L100.342-58.4961Q100.342-64.6484 97.2656-67.7246Q94.1895-70.8008 87.8906-70.8008L22.2168-70.8008Q16.0156-70.8008 12.8906-67.7246Q9.76562-64.6484 9.76562-58.4961L9.76562-11.9141Q9.76562-5.76172 12.8906-2.68555Q16.0156 0.390625 22.2168 0.390625ZM22.3145-6.68945Q19.6777-6.68945 18.2373-8.10547Q16.7969-9.52148 16.7969-12.2559L16.7969-58.1543Q16.7969-60.9375 18.2373-62.3291Q19.6777-63.7207 22.3145-63.7207L87.793-63.7207Q90.4297-63.7207 91.8701-62.3291Q93.3105-60.9375 93.3105-58.1543L93.3105-12.2559Q93.3105-9.52148 91.8701-8.10547Q90.4297-6.68945 87.793-6.68945Z"/>
   <path class="hierarchical-1:primary SFSymbolsPreview212121" d="M27.3926-19.3359L47.998-19.3359Q53.5645-19.3359 53.5645-24.7559L53.5645-45.6543Q53.5645-51.0742 47.998-51.0742L27.3926-51.0742Q21.8262-51.0742 21.8262-45.6543L21.8262-24.7559Q21.8262-19.3359 27.3926-19.3359ZM37.6953-32.0312Q35.2539-32.0312 33.5449-33.8867Q31.8359-35.7422 31.8359-38.4766Q31.8359-41.1133 33.5449-42.9443Q35.2539-44.7754 37.6953-44.7754Q40.1855-44.7754 41.8945-42.9443Q43.6035-41.1133 43.6035-38.4766Q43.6035-35.7422 41.8945-33.8867Q40.1855-32.0312 37.6953-32.0312ZM26.2695-23.291Q26.9531-25.0488 28.6133-26.416Q30.2734-27.7832 32.5928-28.5889Q34.9121-29.3945 37.6953-29.3945Q40.4785-29.3945 42.8223-28.5889Q45.166-27.7832 46.8018-26.416Q48.4375-25.0488 49.1699-23.291ZM73.6816-19.8242Q75.3906-19.8242 77.0752-20.0195Q78.7598-20.2148 79.9316-20.7031Q81.7871-21.4844 81.7871-22.998Q81.7871-24.8535 79.9316-24.8535Q79.6875-24.8535 79.4434-24.8291Q79.1992-24.8047 78.9062-24.7559Q77.9785-24.6094 77.002-24.3408Q76.0254-24.0723 74.1699-24.0723Q68.7988-24.0723 65.7471-26.9775Q62.6953-29.8828 62.6953-35.1074Q62.6953-38.5254 64.0381-41.1133Q65.3809-43.7012 67.8223-45.1416Q70.2637-46.582 73.4863-46.582Q78.3203-46.582 81.25-43.8232Q84.1797-41.0645 84.1797-36.5723Q84.1797-33.9844 83.4717-32.4463Q82.7637-30.9082 81.543-30.9082Q80.3223-30.9082 80.3223-31.9336L80.3223-41.2598Q80.3223-42.1875 79.7119-42.8223Q79.1016-43.457 78.1738-43.457Q76.6113-43.457 76.123-42.041L76.123-41.9434Q74.8047-43.457 72.3633-43.457Q69.3359-43.457 67.4316-41.1133Q65.5273-38.7695 65.5273-35.2051Q65.5273-31.4453 67.4561-29.126Q69.3848-26.8066 72.5098-26.8066Q75.1465-26.8066 76.8555-28.9062Q78.2227-26.8066 81.1523-26.8066Q84.375-26.8066 86.377-29.5898Q88.3789-32.373 88.3789-36.8652Q88.3789-40.9668 86.4746-44.0674Q84.5703-47.168 81.2256-48.9258Q77.8809-50.6836 73.4863-50.6836Q68.9453-50.6836 65.4785-48.7549Q62.0117-46.8262 60.1074-43.3105Q58.2031-39.7949 58.2031-35.1562Q58.2031-30.5176 60.1318-27.0752Q62.0605-23.6328 65.5273-21.7285Q68.9941-19.8242 73.6816-19.8242ZM73.1934-31.1035Q71.8262-31.1035 71.0449-32.2021Q70.2637-33.3008 70.2637-35.3027Q70.2637-37.2559 71.0449-38.3057Q71.8262-39.3555 73.2422-39.3555Q74.6582-39.3555 75.4639-38.2812Q76.2695-37.207 76.2695-35.3516Q76.2695-33.3496 75.4639-32.2266Q74.6582-31.1035 73.1934-31.1035Z"/>
  </g>
  <g id="Ultralight-S" transform="matrix(1 0 0 1 505.702 696)">
   <path class="hierarchical-0:secondary SFSymbolsPreview4D4D4D" d="M19.7647-1.65253L88.2538-1.65253Q93.1908-1.65253 95.7218-4.22935Q98.2529-6.80618 98.2529-11.6417L98.2529-58.8593Q98.2529-63.6948 95.7218-66.2716Q93.1908-68.8484 88.2538-68.8484L19.7647-68.8484Q14.8346-68.8484 12.3001-66.317Q9.76562-63.7856 9.76562-58.8593L9.76562-11.6417Q9.76562-6.71539 12.3001-4.18396Q14.8346-1.65253 19.7647-1.65253ZM19.8624-3.87421Q15.9538-3.87421 13.9687-5.85785Q11.9835-7.84149 11.9835-11.7561L11.9835-58.7448Q11.9835-62.6633 13.9687-64.645Q15.9538-66.6267 19.8624-66.6267L88.1561-66.6267Q91.9281-66.6267 93.9816-64.645Q96.035-62.6633 96.035-58.7448L96.035-11.7561Q96.035-7.84149 93.9816-5.85785Q91.9281-3.87421 88.1561-3.87421Z"/>
   <path class="hierarchical-1:primary SFSymbolsPreview212121" d="M23.5779-18.3372L47.2717-18.3372Q52.2476-18.3372 52.2476-23.3025L52.2476-47.0169Q52.2476-51.9821 47.2717-51.9821L23.5779-51.9821Q18.557-51.9821 18.557-47.0169L18.557-23.3025Q18.557-18.3372 23.5779-18.3372ZM35.4248-32.4852Q32.756-32.4852 30.9109-34.4997Q29.0657-36.5143 29.0657-39.4302Q29.0657-42.2943 30.9109-44.3069Q32.756-46.3196 35.4248-46.3196Q38.0966-46.3196 39.9418-44.3069Q41.787-42.2943 41.787-39.4302Q41.787-36.5143 39.9418-34.4997Q38.0966-32.4852 35.4248-32.4852ZM23.0003-20.385Q23.0476-21.9154 24.3217-24.0318Q25.5959-26.1482 28.3241-27.7714Q31.0524-29.3945 35.4706-29.3945Q39.888-29.3945 42.6178-27.7714Q45.3476-26.1482 46.6202-24.0318Q47.8928-21.9154 47.8981-20.385ZM73.5909-18.3258Q75.9811-18.3258 77.6428-18.5436Q79.3045-18.7614 80.0682-19.0681Q80.9242-19.3954 80.9242-20.137Q80.9242-21.0388 79.9774-21.0388Q79.5509-21.0388 79.1027-20.9236Q78.6545-20.8084 77.9076-20.6688Q77.2064-20.5681 76.2074-20.4582Q75.2083-20.3484 73.6252-20.3484Q67.2096-20.3484 63.2271-24.4797Q59.2445-28.611 59.2445-35.244Q59.2445-39.4791 61.1092-42.7708Q62.9738-46.0625 66.2556-47.9568Q69.5374-49.8512 73.7137-49.8512Q80.0003-49.8512 83.9066-46.1391Q87.8128-42.4271 87.8128-36.4815Q87.8128-32.3952 86.6734-30.2895Q85.5339-28.1837 83.3595-28.1837Q80.1407-28.1837 80.1407-32.1609L80.1407-42.6224Q80.1407-43.0504 79.8481-43.3445Q79.5555-43.6386 79.1275-43.6386Q78.2005-43.6386 78.1662-42.6315L78.1662-41.3078Q76.3939-43.6386 73.1804-43.6386Q70.0172-43.6386 68.0222-41.2041Q66.0271-38.7695 66.0271-34.9327Q66.0271-31.0364 68.0237-28.6491Q70.0203-26.2619 73.1911-26.2619Q76.7815-26.2619 78.5812-29.3602Q79.7211-26.2161 83.3321-26.2161Q86.3731-26.2161 88.1252-28.9314Q89.8773-31.6467 89.8773-36.5021Q89.8773-41.0126 87.7914-44.4534Q85.7056-47.8943 82.0656-49.8795Q78.4256-51.8646 73.7137-51.8646Q68.9911-51.8646 65.229-49.7086Q61.467-47.5525 59.3357-43.7874Q57.2044-40.0223 57.2044-35.247Q57.2044-30.2902 59.2918-26.4847Q61.3792-22.6791 65.073-20.5025Q68.7668-18.3258 73.5909-18.3258ZM73.2391-28.1975Q70.9183-28.1975 69.4786-30.0453Q68.0389-31.8932 68.0389-34.9396Q68.0389-37.8914 69.5011-39.8041Q70.9633-41.7168 73.2422-41.7168Q75.5211-41.7168 76.849-39.9612Q78.1769-38.2057 78.1769-35.17Q78.1769-31.987 76.849-30.0922Q75.5211-28.1975 73.2391-28.1975Z"/>
  </g>
 </g>
</svg>
