<?xml version="1.0" encoding="UTF-8"?>
<!--Generator: Apple Native CoreSVG 175-->
<!DOCTYPE svg
PUBLIC "-//W3C//DTD SVG 1.1//EN"
       "http://www.w3.org/Graphics/SVG/1.1/DTD/svg11.dtd">
<svg version="1.1" xmlns="http://www.w3.org/2000/svg" xmlns:xlink="http://www.w3.org/1999/xlink" width="3300" height="2200">
 <!--glyph: "uni100A44.medium", point size: 100.0, font version: "17.3d3e1", template writer version: "65.1"-->
 <style>.hierarchical-0:secondary {fill:#4D4D4D}
.hierarchical-1:primary {fill:#212121}

.SFSymbolsPreview212121 {fill:#212121;opacity:1.0}
.SFSymbolsPreview4D4D4D {fill:#4D4D4D;opacity:1.0}
</style>
 <g id="Notes">
  <rect height="2200" id="artboard" style="fill:white;opacity:1" width="3300" x="0" y="0"/>
  <line style="fill:none;stroke:black;opacity:1;stroke-width:0.5;" x1="263" x2="3036" y1="292" y2="292"/>
  <text style="stroke:none;fill:black;font-family:sans-serif;font-size:13;font-weight:bold;" transform="matrix(1 0 0 1 263 322)">Weight/Scale Variations</text>
  <text style="stroke:none;fill:black;font-family:sans-serif;font-size:13;text-anchor:middle;" transform="matrix(1 0 0 1 559.711 322)">Ultralight</text>
  <text style="stroke:none;fill:black;font-family:sans-serif;font-size:13;text-anchor:middle;" transform="matrix(1 0 0 1 856.422 322)">Thin</text>
  <text style="stroke:none;fill:black;font-family:sans-serif;font-size:13;text-anchor:middle;" transform="matrix(1 0 0 1 1153.13 322)">Light</text>
  <text style="stroke:none;fill:black;font-family:sans-serif;font-size:13;text-anchor:middle;" transform="matrix(1 0 0 1 1449.84 322)">Regular</text>
  <text style="stroke:none;fill:black;font-family:sans-serif;font-size:13;text-anchor:middle;" transform="matrix(1 0 0 1 1746.56 322)">Medium</text>
  <text style="stroke:none;fill:black;font-family:sans-serif;font-size:13;text-anchor:middle;" transform="matrix(1 0 0 1 2043.27 322)">Semibold</text>
  <text style="stroke:none;fill:black;font-family:sans-serif;font-size:13;text-anchor:middle;" transform="matrix(1 0 0 1 2339.98 322)">Bold</text>
  <text style="stroke:none;fill:black;font-family:sans-serif;font-size:13;text-anchor:middle;" transform="matrix(1 0 0 1 2636.69 322)">Heavy</text>
  <text style="stroke:none;fill:black;font-family:sans-serif;font-size:13;text-anchor:middle;" transform="matrix(1 0 0 1 2933.4 322)">Black</text>
  <line style="fill:none;stroke:black;opacity:1;stroke-width:0.5;" x1="263" x2="3036" y1="1903" y2="1903"/>
  <g transform="matrix(1 0 0 1 263 1933)">
   <path d="M9.24805 0.830078Q10.8691 0.830078 12.2949 0.214844Q13.7207-0.400391 14.8096-1.49414Q15.8984-2.58789 16.5186-4.01367Q17.1387-5.43945 17.1387-7.05078Q17.1387-8.66211 16.5186-10.0879Q15.8984-11.5137 14.8047-12.6074Q13.7109-13.7012 12.2852-14.3164Q10.8594-14.9316 9.23828-14.9316Q7.62695-14.9316 6.20117-14.3164Q4.77539-13.7012 3.69141-12.6074Q2.60742-11.5137 1.9873-10.0879Q1.36719-8.66211 1.36719-7.05078Q1.36719-5.43945 1.9873-4.01367Q2.60742-2.58789 3.69629-1.49414Q4.78516-0.400391 6.21094 0.214844Q7.63672 0.830078 9.24805 0.830078ZM9.24805-0.654297Q7.91992-0.654297 6.7627-1.14746Q5.60547-1.64062 4.73145-2.51953Q3.85742-3.39844 3.36426-4.56055Q2.87109-5.72266 2.87109-7.05078Q2.87109-8.37891 3.35938-9.54102Q3.84766-10.7031 4.72168-11.582Q5.5957-12.4609 6.75293-12.9541Q7.91016-13.4473 9.23828-13.4473Q10.5762-13.4473 11.7334-12.9541Q12.8906-12.4609 13.7695-11.582Q14.6484-10.7031 15.1465-9.54102Q15.6445-8.37891 15.6445-7.05078Q15.6445-5.72266 15.1514-4.56055Q14.6582-3.39844 13.7842-2.51953Q12.9102-1.64062 11.748-1.14746Q10.5859-0.654297 9.24805-0.654297ZM5.6543-7.05078Q5.6543-6.72852 5.85938-6.52832Q6.06445-6.32812 6.40625-6.32812L8.51562-6.32812L8.51562-4.20898Q8.51562-3.88672 8.71094-3.67676Q8.90625-3.4668 9.23828-3.4668Q9.56055-3.4668 9.77051-3.67676Q9.98047-3.88672 9.98047-4.20898L9.98047-6.32812L12.0898-6.32812Q12.4219-6.32812 12.627-6.52832Q12.832-6.72852 12.832-7.05078Q12.832-7.38281 12.627-7.58789Q12.4219-7.79297 12.0898-7.79297L9.98047-7.79297L9.98047-9.90234Q9.98047-10.2344 9.77051-10.4443Q9.56055-10.6543 9.23828-10.6543Q8.90625-10.6543 8.71094-10.4443Q8.51562-10.2344 8.51562-9.90234L8.51562-7.79297L6.40625-7.79297Q6.06445-7.79297 5.85938-7.58789Q5.6543-7.38281 5.6543-7.05078Z"/>
  </g>
  <g transform="matrix(1 0 0 1 281.867 1933)">
   <path d="M11.709 2.91016Q13.75 2.91016 15.5518 2.12891Q17.3535 1.34766 18.7305-0.0292969Q20.1074-1.40625 20.8887-3.20801Q21.6699-5.00977 21.6699-7.05078Q21.6699-9.0918 20.8887-10.8936Q20.1074-12.6953 18.7305-14.0723Q17.3535-15.4492 15.5469-16.2305Q13.7402-17.0117 11.6992-17.0117Q9.6582-17.0117 7.85645-16.2305Q6.05469-15.4492 4.68262-14.0723Q3.31055-12.6953 2.5293-10.8936Q1.74805-9.0918 1.74805-7.05078Q1.74805-5.00977 2.5293-3.20801Q3.31055-1.40625 4.6875-0.0292969Q6.06445 1.34766 7.86621 2.12891Q9.66797 2.91016 11.709 2.91016ZM11.709 1.25Q9.98047 1.25 8.47656 0.605469Q6.97266-0.0390625 5.83496-1.17676Q4.69727-2.31445 4.05762-3.81836Q3.41797-5.32227 3.41797-7.05078Q3.41797-8.7793 4.05762-10.2832Q4.69727-11.7871 5.83008-12.9297Q6.96289-14.0723 8.4668-14.7119Q9.9707-15.3516 11.6992-15.3516Q13.4277-15.3516 14.9316-14.7119Q16.4355-14.0723 17.5781-12.9297Q18.7207-11.7871 19.3652-10.2832Q20.0098-8.7793 20.0098-7.05078Q20.0098-5.32227 19.3701-3.81836Q18.7305-2.31445 17.5928-1.17676Q16.4551-0.0390625 14.9463 0.605469Q13.4375 1.25 11.709 1.25ZM7.17773-7.05078Q7.17773-6.69922 7.41211-6.47461Q7.64648-6.25 8.01758-6.25L10.8887-6.25L10.8887-3.36914Q10.8887-2.99805 11.1133-2.76855Q11.3379-2.53906 11.6895-2.53906Q12.0605-2.53906 12.29-2.76855Q12.5195-2.99805 12.5195-3.36914L12.5195-6.25L15.4004-6.25Q15.7715-6.25 16.001-6.47461Q16.2305-6.69922 16.2305-7.05078Q16.2305-7.42188 16.001-7.65137Q15.7715-7.88086 15.4004-7.88086L12.5195-7.88086L12.5195-10.752Q12.5195-11.1328 12.29-11.3623Q12.0605-11.5918 11.6895-11.5918Q11.3379-11.5918 11.1133-11.3574Q10.8887-11.123 10.8887-10.752L10.8887-7.88086L8.01758-7.88086Q7.63672-7.88086 7.40723-7.65137Q7.17773-7.42188 7.17773-7.05078Z"/>
  </g>
  <g transform="matrix(1 0 0 1 305.646 1933)">
   <path d="M14.9707 5.66406Q17.0605 5.66406 18.96 5.01465Q20.8594 4.36523 22.4512 3.19336Q24.043 2.02148 25.2197 0.429688Q26.3965-1.16211 27.0459-3.06641Q27.6953-4.9707 27.6953-7.05078Q27.6953-9.14062 27.0459-11.04Q26.3965-12.9395 25.2197-14.5312Q24.043-16.123 22.4512-17.2998Q20.8594-18.4766 18.9551-19.126Q17.0508-19.7754 14.9609-19.7754Q12.8711-19.7754 10.9717-19.126Q9.07227-18.4766 7.48535-17.2998Q5.89844-16.123 4.72168-14.5312Q3.54492-12.9395 2.90039-11.04Q2.25586-9.14062 2.25586-7.05078Q2.25586-4.9707 2.90527-3.06641Q3.55469-1.16211 4.72656 0.429688Q5.89844 2.02148 7.49023 3.19336Q9.08203 4.36523 10.9814 5.01465Q12.8809 5.66406 14.9707 5.66406ZM14.9707 3.84766Q13.1641 3.84766 11.5283 3.2959Q9.89258 2.74414 8.53516 1.74805Q7.17773 0.751953 6.17676-0.610352Q5.17578-1.97266 4.62891-3.6084Q4.08203-5.24414 4.08203-7.05078Q4.08203-8.86719 4.62891-10.5029Q5.17578-12.1387 6.17188-13.501Q7.16797-14.8633 8.52539-15.8594Q9.88281-16.8555 11.5186-17.4023Q13.1543-17.9492 14.9609-17.9492Q16.7773-17.9492 18.4131-17.4023Q20.0488-16.8555 21.4111-15.8594Q22.7734-14.8633 23.7695-13.501Q24.7656-12.1387 25.3174-10.5029Q25.8691-8.86719 25.8691-7.05078Q25.8789-5.24414 25.332-3.6084Q24.7852-1.97266 23.7842-0.610352Q22.7832 0.751953 21.4209 1.74805Q20.0586 2.74414 18.4229 3.2959Q16.7871 3.84766 14.9707 3.84766ZM9.19922-7.05078Q9.19922-6.66992 9.45801-6.4209Q9.7168-6.17188 10.1172-6.17188L14.0625-6.17188L14.0625-2.2168Q14.0625-1.81641 14.3115-1.55762Q14.5605-1.29883 14.9512-1.29883Q15.3516-1.29883 15.6104-1.55273Q15.8691-1.80664 15.8691-2.2168L15.8691-6.17188L19.8242-6.17188Q20.2246-6.17188 20.4785-6.4209Q20.7324-6.66992 20.7324-7.05078Q20.7324-7.46094 20.4785-7.71484Q20.2246-7.96875 19.8242-7.96875L15.8691-7.96875L15.8691-11.9141Q15.8691-12.3242 15.6104-12.583Q15.3516-12.8418 14.9512-12.8418Q14.5605-12.8418 14.3115-12.583Q14.0625-12.3242 14.0625-11.9141L14.0625-7.96875L10.1172-7.96875Q9.70703-7.96875 9.45312-7.71484Q9.19922-7.46094 9.19922-7.05078Z"/>
  </g>
  <text style="stroke:none;fill:black;font-family:sans-serif;font-size:13;font-weight:bold;" transform="matrix(1 0 0 1 263 1953)">Design Variations</text>
  <text style="stroke:none;fill:black;font-family:sans-serif;font-size:13;" transform="matrix(1 0 0 1 263 1971)">Symbols are supported in up to nine weights and three scales.</text>
  <text style="stroke:none;fill:black;font-family:sans-serif;font-size:13;" transform="matrix(1 0 0 1 263 1989)">For optimal layout with text and other symbols, vertically align</text>
  <text style="stroke:none;fill:black;font-family:sans-serif;font-size:13;" transform="matrix(1 0 0 1 263 2007)">symbols with the adjacent text.</text>
  <line style="fill:none;stroke:#00AEEF;stroke-width:0.5;opacity:1.0;" x1="776" x2="776" y1="1919" y2="1933"/>
  <g transform="matrix(1 0 0 1 776 1933)">
   <path d="M3.31055 0.15625Q3.70117 0.15625 3.91602-0.00976562Q4.13086-0.175781 4.26758-0.585938L5.52734-4.0332L11.2891-4.0332L12.5488-0.585938Q12.6855-0.175781 12.9004-0.00976562Q13.1152 0.15625 13.4961 0.15625Q13.8867 0.15625 14.1162-0.0585938Q14.3457-0.273438 14.3457-0.644531Q14.3457-0.869141 14.2383-1.17188L9.6582-13.3691Q9.48242-13.8184 9.17969-14.043Q8.87695-14.2676 8.4082-14.2676Q7.5-14.2676 7.17773-13.3789L2.59766-1.16211Q2.49023-0.859375 2.49023-0.634766Q2.49023-0.263672 2.70996-0.0537109Q2.92969 0.15625 3.31055 0.15625ZM6.00586-5.51758L8.37891-12.0898L8.42773-12.0898L10.8008-5.51758Z"/>
  </g>
  <line style="fill:none;stroke:#00AEEF;stroke-width:0.5;opacity:1.0;" x1="793.197" x2="793.197" y1="1919" y2="1933"/>
  <text style="stroke:none;fill:black;font-family:sans-serif;font-size:13;font-weight:bold;" transform="matrix(1 0 0 1 776 1953)">Margins</text>
  <text style="stroke:none;fill:black;font-family:sans-serif;font-size:13;" transform="matrix(1 0 0 1 776 1971)">Leading and trailing margins on the left and right side of each symbol</text>
  <text style="stroke:none;fill:black;font-family:sans-serif;font-size:13;" transform="matrix(1 0 0 1 776 1989)">can be adjusted by modifying the x-location of the margin guidelines.</text>
  <text style="stroke:none;fill:black;font-family:sans-serif;font-size:13;" transform="matrix(1 0 0 1 776 2007)">Modifications are automatically applied proportionally to all</text>
  <text style="stroke:none;fill:black;font-family:sans-serif;font-size:13;" transform="matrix(1 0 0 1 776 2025)">scales and weights.</text>
  <g transform="matrix(1 0 0 1 1289 1933)">
   <path d="M2.8418 1.86523L4.54102 3.57422Q5.18555 4.22852 5.90332 4.17969Q6.62109 4.13086 7.31445 3.35938L18.0078-8.42773L17.041-9.4043L6.42578 2.27539Q6.16211 2.57812 5.89355 2.61719Q5.625 2.65625 5.27344 2.30469L4.10156 1.14258Q3.75 0.791016 3.79395 0.522461Q3.83789 0.253906 4.14062-0.0195312L15.6152-10.8203L14.6387-11.7871L3.04688-0.898438Q2.30469-0.214844 2.25098 0.498047Q2.19727 1.21094 2.8418 1.86523ZM9.25781-16.3281Q8.94531-16.0254 8.90625-15.6348Q8.86719-15.2441 9.04297-14.9512Q9.21875-14.6777 9.55566-14.541Q9.89258-14.4043 10.3809-14.5215Q11.4746-14.7754 12.5977-14.7314Q13.7207-14.6875 14.7949-13.9844L14.209-12.5293Q13.9551-11.9043 14.0674-11.4404Q14.1797-10.9766 14.5801-10.5664L16.875-8.25195Q17.2363-7.88086 17.5781-7.82227Q17.9199-7.76367 18.3398-7.8418L19.4043-8.03711L20.0684-7.36328L20.0293-6.80664Q20-6.43555 20.1221-6.12305Q20.2441-5.81055 20.6055-5.44922L21.3672-4.70703Q21.7285-4.3457 22.1533-4.33105Q22.5781-4.31641 22.9297-4.66797L25.8398-7.58789Q26.1914-7.93945 26.1816-8.35449Q26.1719-8.76953 25.8105-9.13086L25.0391-9.89258Q24.6875-10.2539 24.3799-10.3857Q24.0723-10.5176 23.7109-10.4883L23.1348-10.4395L22.4902-11.0742L22.7344-12.1973Q22.832-12.6172 22.6953-12.9834Q22.5586-13.3496 22.1191-13.7891L19.9219-15.9766Q18.6719-17.2168 17.2607-17.8369Q15.8496-18.457 14.4189-18.4814Q12.9883-18.5059 11.665-17.959Q10.3418-17.4121 9.25781-16.3281ZM10.752-15.957Q11.6602-16.6211 12.7002-16.9043Q13.7402-17.1875 14.8047-17.085Q15.8691-16.9824 16.8701-16.5137Q17.8711-16.0449 18.7012-15.2051L21.1328-12.793Q21.3086-12.6172 21.3525-12.4512Q21.3965-12.2852 21.3379-12.0312L21.0156-10.5469L22.5195-9.0625L23.5059-9.12109Q23.6914-9.13086 23.7891-9.09668Q23.8867-9.0625 24.0332-8.91602L24.6094-8.33984L22.168-5.89844L21.5918-6.47461Q21.4453-6.62109 21.4062-6.71875Q21.3672-6.81641 21.377-7.01172L21.4453-7.98828L19.9512-9.47266L18.4277-9.21875Q18.1836-9.16992 18.042-9.2041Q17.9004-9.23828 17.7148-9.41406L15.7129-11.416Q15.5176-11.5918 15.4932-11.7529Q15.4688-11.9141 15.5859-12.1875L16.4648-14.2773Q15.293-15.3711 13.8281-15.791Q12.3633-16.2109 10.8398-15.7617Q10.7227-15.7324 10.6885-15.8057Q10.6543-15.8789 10.752-15.957Z"/>
  </g>
  <text style="stroke:none;fill:black;font-family:sans-serif;font-size:13;font-weight:bold;" transform="matrix(1 0 0 1 1289 1953)">Exporting</text>
  <text style="stroke:none;fill:black;font-family:sans-serif;font-size:13;" transform="matrix(1 0 0 1 1289 1971)">Symbols should be outlined when exporting to ensure the</text>
  <text style="stroke:none;fill:black;font-family:sans-serif;font-size:13;" transform="matrix(1 0 0 1 1289 1989)">design is preserved when submitting to Xcode.</text>
  <text id="template-version" style="stroke:none;fill:black;font-family:sans-serif;font-size:13;text-anchor:end;" transform="matrix(1 0 0 1 3036 1933)">Template v.3.0</text>
  <text style="stroke:none;fill:black;font-family:sans-serif;font-size:13;text-anchor:end;" transform="matrix(1 0 0 1 3036 1951)">Requires Xcode 13 or greater</text>
  <text id="descriptive-name" style="stroke:none;fill:black;font-family:sans-serif;font-size:13;text-anchor:end;" transform="matrix(1 0 0 1 3036 1969)">Generated from circle.grid.cross.left.filled</text>
  <text style="stroke:none;fill:black;font-family:sans-serif;font-size:13;text-anchor:end;" transform="matrix(1 0 0 1 3036 1987)">Typeset at 100 points</text>
  <text style="stroke:none;fill:black;font-family:sans-serif;font-size:13;" transform="matrix(1 0 0 1 263 726)">Small</text>
  <text style="stroke:none;fill:black;font-family:sans-serif;font-size:13;" transform="matrix(1 0 0 1 263 1156)">Medium</text>
  <text style="stroke:none;fill:black;font-family:sans-serif;font-size:13;" transform="matrix(1 0 0 1 263 1586)">Large</text>
 </g>
 <g id="Guides">
  <g id="H-reference" style="fill:#27AAE1;stroke:none;" transform="matrix(1 0 0 1 339 696)">
   <path d="M0.993347 0L3.6377 0L29.3282-67.1326L30.0301-67.1326L30.0301-70.459L28.1227-70.459ZM11.6882-24.4797L46.9818-24.4797L46.2311-26.7288L12.4382-26.7288ZM55.1193 0L57.7637 0L30.6381-70.459L29.4327-70.459L29.4327-67.1326Z"/>
  </g>
  <line id="Baseline-S" style="fill:none;stroke:#27AAE1;opacity:1;stroke-width:0.5;" x1="263" x2="3036" y1="696" y2="696"/>
  <line id="Capline-S" style="fill:none;stroke:#27AAE1;opacity:1;stroke-width:0.5;" x1="263" x2="3036" y1="625.541" y2="625.541"/>
  <g id="H-reference" style="fill:#27AAE1;stroke:none;" transform="matrix(1 0 0 1 339 1126)">
   <path d="M0.993347 0L3.6377 0L29.3282-67.1326L30.0301-67.1326L30.0301-70.459L28.1227-70.459ZM11.6882-24.4797L46.9818-24.4797L46.2311-26.7288L12.4382-26.7288ZM55.1193 0L57.7637 0L30.6381-70.459L29.4327-70.459L29.4327-67.1326Z"/>
  </g>
  <line id="Baseline-M" style="fill:none;stroke:#27AAE1;opacity:1;stroke-width:0.5;" x1="263" x2="3036" y1="1126" y2="1126"/>
  <line id="Capline-M" style="fill:none;stroke:#27AAE1;opacity:1;stroke-width:0.5;" x1="263" x2="3036" y1="1055.54" y2="1055.54"/>
  <g id="H-reference" style="fill:#27AAE1;stroke:none;" transform="matrix(1 0 0 1 339 1556)">
   <path d="M0.993347 0L3.6377 0L29.3282-67.1326L30.0301-67.1326L30.0301-70.459L28.1227-70.459ZM11.6882-24.4797L46.9818-24.4797L46.2311-26.7288L12.4382-26.7288ZM55.1193 0L57.7637 0L30.6381-70.459L29.4327-70.459L29.4327-67.1326Z"/>
  </g>
  <line id="Baseline-L" style="fill:none;stroke:#27AAE1;opacity:1;stroke-width:0.5;" x1="263" x2="3036" y1="1556" y2="1556"/>
  <line id="Capline-L" style="fill:none;stroke:#27AAE1;opacity:1;stroke-width:0.5;" x1="263" x2="3036" y1="1485.54" y2="1485.54"/>
  <line id="left-margin-Ultralight-S" style="fill:none;stroke:#00AEEF;stroke-width:0.5;opacity:1.0;" x1="508.954" x2="508.954" y1="600.785" y2="720.121"/>
  <line id="right-margin-Ultralight-S" style="fill:none;stroke:#00AEEF;stroke-width:0.5;opacity:1.0;" x1="610.469" x2="610.469" y1="600.785" y2="720.121"/>
  <line id="left-margin-Regular-S" style="fill:none;stroke:#00AEEF;stroke-width:0.5;opacity:1.0;" x1="1398.43" x2="1398.43" y1="600.785" y2="720.121"/>
  <line id="right-margin-Regular-S" style="fill:none;stroke:#00AEEF;stroke-width:0.5;opacity:1.0;" x1="1501.26" x2="1501.26" y1="600.785" y2="720.121"/>
  <line id="left-margin-Black-S" style="fill:none;stroke:#00AEEF;stroke-width:0.5;opacity:1.0;" x1="2881.15" x2="2881.15" y1="600.785" y2="720.121"/>
  <line id="right-margin-Black-S" style="fill:none;stroke:#00AEEF;stroke-width:0.5;opacity:1.0;" x1="2985.65" x2="2985.65" y1="600.785" y2="720.121"/>
 </g>
 <g id="Symbols">
  <g id="Black-S" transform="matrix(1 0 0 1 2881.15 696)">
   <path class="hierarchical-0:secondary SFSymbolsPreview4D4D4D" d="M80.3711-17.9199Q85.1074-17.9199 89.0381-20.2881Q92.9688-22.6562 95.3125-26.5869Q97.6562-30.5176 97.6562-35.2539Q97.6562-39.9902 95.3125-43.8965Q92.9688-47.8027 89.0381-50.1709Q85.1074-52.5391 80.3711-52.5391Q75.5859-52.5391 71.6309-50.1709Q67.6758-47.8027 65.332-43.8965Q62.9883-39.9902 62.9883-35.2539Q62.9883-30.5176 65.332-26.5869Q67.6758-22.6562 71.6309-20.2881Q75.5859-17.9199 80.3711-17.9199ZM52.2461-46.9727Q56.9824-46.9727 60.9131-49.3408Q64.8438-51.709 67.1875-55.6396Q69.5312-59.5703 69.5312-64.3066Q69.5312-69.043 67.1875-72.9492Q64.8438-76.8555 60.9131-79.2236Q56.9824-81.5918 52.2461-81.5918Q47.4609-81.5918 43.5059-79.2236Q39.5508-76.8555 37.207-72.9492Q34.8633-69.043 34.8633-64.3066Q34.8633-59.5703 37.207-55.6396Q39.5508-51.709 43.5059-49.3408Q47.4609-46.9727 52.2461-46.9727ZM52.2461 11.084Q56.9824 11.084 60.9131 8.71582Q64.8438 6.34766 67.1875 2.41699Q69.5312-1.51367 69.5312-6.25Q69.5312-10.9863 67.1875-14.8926Q64.8438-18.7988 60.9131-21.167Q56.9824-23.5352 52.2461-23.5352Q47.4609-23.5352 43.5059-21.167Q39.5508-18.7988 37.207-14.8926Q34.8633-10.9863 34.8633-6.25Q34.8633-1.51367 37.207 2.41699Q39.5508 6.34766 43.5059 8.71582Q47.4609 11.084 52.2461 11.084ZM52.1973-58.7891Q50.6348-58.7891 49.3652-59.5215Q48.0957-60.2539 47.3633-61.499Q46.6309-62.7441 46.6309-64.2578Q46.6309-65.8203 47.3633-67.0654Q48.0957-68.3105 49.3652-69.0674Q50.6348-69.8242 52.1973-69.8242Q53.7598-69.8242 55.0049-69.0674Q56.25-68.3105 57.0068-67.0654Q57.7637-65.8203 57.7637-64.2578Q57.7637-62.7441 57.0068-61.499Q56.25-60.2539 55.0049-59.5215Q53.7598-58.7891 52.1973-58.7891ZM52.1973-0.732422Q50.6348-0.732422 49.3652-1.46484Q48.0957-2.19727 47.3633-3.44238Q46.6309-4.6875 46.6309-6.20117Q46.6309-7.76367 47.3633-9.00879Q48.0957-10.2539 49.3652-11.0107Q50.6348-11.7676 52.1973-11.7676Q53.7598-11.7676 55.0049-11.0107Q56.25-10.2539 57.0068-9.00879Q57.7637-7.76367 57.7637-6.20117Q57.7637-4.6875 57.0068-3.44238Q56.25-2.19727 55.0049-1.46484Q53.7598-0.732422 52.1973-0.732422ZM80.3223-29.7363Q78.7598-29.7363 77.4902-30.4688Q76.2207-31.2012 75.4883-32.4463Q74.7559-33.6914 74.7559-35.2051Q74.7559-36.7676 75.4883-38.0127Q76.2207-39.2578 77.4902-40.0146Q78.7598-40.7715 80.3223-40.7715Q81.8848-40.7715 83.1299-40.0146Q84.375-39.2578 85.1318-38.0127Q85.8887-36.7676 85.8887-35.2051Q85.8887-33.6914 85.1318-32.4463Q84.375-31.2012 83.1299-30.4688Q81.8848-29.7363 80.3223-29.7363Z"/>
   <path class="hierarchical-1:primary SFSymbolsPreview212121" d="M24.2188-17.9199Q28.9551-17.9199 32.8857-20.2881Q36.8164-22.6562 39.1602-26.5869Q41.5039-30.5176 41.5039-35.2539Q41.5039-39.9902 39.1602-43.8965Q36.8164-47.8027 32.8857-50.1709Q28.9551-52.5391 24.2188-52.5391Q19.4336-52.5391 15.4785-50.1709Q11.5234-47.8027 9.17969-43.8965Q6.83594-39.9902 6.83594-35.2539Q6.83594-30.5176 9.17969-26.5869Q11.5234-22.6562 15.4785-20.2881Q19.4336-17.9199 24.2188-17.9199Z"/>
  </g>
  <g id="Regular-S" transform="matrix(1 0 0 1 1398.43 696)">
   <path class="hierarchical-0:secondary SFSymbolsPreview4D4D4D" d="M79.3457-18.6035Q83.9355-18.6035 87.7197-20.874Q91.5039-23.1445 93.75-26.9287Q95.9961-30.7129 95.9961-35.3027Q95.9961-39.8438 93.75-43.6279Q91.5039-47.4121 87.7197-49.6826Q83.9355-51.9531 79.3457-51.9531Q74.707-51.9531 70.9229-49.6826Q67.1387-47.4121 64.8926-43.6279Q62.6465-39.8438 62.6465-35.3027Q62.6465-30.7129 64.8926-26.9287Q67.1387-23.1445 70.9229-20.874Q74.707-18.6035 79.3457-18.6035ZM51.416-47.4121Q56.0059-47.4121 59.79-49.6582Q63.5742-51.9043 65.8447-55.7129Q68.1152-59.5215 68.1152-64.0625Q68.1152-68.6523 65.8447-72.4365Q63.5742-76.2207 59.79-78.4668Q56.0059-80.7129 51.416-80.7129Q46.8262-80.7129 43.042-78.4668Q39.2578-76.2207 36.9873-72.4365Q34.7168-68.6523 34.7168-64.0625Q34.7168-59.5215 36.9873-55.7129Q39.2578-51.9043 43.042-49.6582Q46.8262-47.4121 51.416-47.4121ZM51.416 10.1562Q56.0059 10.1562 59.79 7.91016Q63.5742 5.66406 65.8447 1.85547Q68.1152-1.95312 68.1152-6.49414Q68.1152-11.084 65.8447-14.8682Q63.5742-18.6523 59.79-20.8984Q56.0059-23.1445 51.416-23.1445Q46.8262-23.1445 43.042-20.8984Q39.2578-18.6523 36.9873-14.8682Q34.7168-11.084 34.7168-6.49414Q34.7168-1.95312 36.9873 1.85547Q39.2578 5.66406 43.042 7.91016Q46.8262 10.1562 51.416 10.1562ZM51.416-54.248Q48.6328-54.248 46.3867-55.5664Q44.1406-56.8848 42.8467-59.1064Q41.5527-61.3281 41.5527-64.0625Q41.5527-66.8457 42.8467-69.1162Q44.1406-71.3867 46.3867-72.7295Q48.6328-74.0723 51.416-74.0723Q54.1992-74.0723 56.4209-72.7295Q58.6426-71.3867 59.9609-69.1162Q61.2793-66.8457 61.2793-64.0625Q61.2793-61.3281 59.9609-59.1064Q58.6426-56.8848 56.4209-55.5664Q54.1992-54.248 51.416-54.248ZM51.416 3.32031Q48.6328 3.32031 46.3867 2.00195Q44.1406 0.683594 42.8467-1.53809Q41.5527-3.75977 41.5527-6.49414Q41.5527-9.27734 42.8467-11.5479Q44.1406-13.8184 46.3867-15.1611Q48.6328-16.5039 51.416-16.5039Q54.1992-16.5039 56.4209-15.1611Q58.6426-13.8184 59.9609-11.5479Q61.2793-9.27734 61.2793-6.49414Q61.2793-3.75977 59.9609-1.53809Q58.6426 0.683594 56.4209 2.00195Q54.1992 3.32031 51.416 3.32031ZM79.3457-25.4883Q76.5625-25.4883 74.3164-26.7822Q72.0703-28.0762 70.752-30.2979Q69.4336-32.5195 69.4336-35.3027Q69.4336-38.0371 70.752-40.3076Q72.0703-42.5781 74.3164-43.9209Q76.5625-45.2637 79.3457-45.2637Q82.0801-45.2637 84.3018-43.9209Q86.5234-42.5781 87.8418-40.3076Q89.1602-38.0371 89.1602-35.3027Q89.1602-32.5195 87.8418-30.2979Q86.5234-28.0762 84.3018-26.7822Q82.0801-25.4883 79.3457-25.4883Z"/>
   <path class="hierarchical-1:primary SFSymbolsPreview212121" d="M23.5352-18.6035Q28.125-18.6035 31.9092-20.874Q35.6934-23.1445 37.9639-26.9287Q40.2344-30.7129 40.2344-35.3027Q40.2344-39.8438 37.9639-43.6279Q35.6934-47.4121 31.9092-49.6826Q28.125-51.9531 23.5352-51.9531Q18.8965-51.9531 15.1123-49.6826Q11.3281-47.4121 9.08203-43.6279Q6.83594-39.8438 6.83594-35.3027Q6.83594-30.7129 9.08203-26.9287Q11.3281-23.1445 15.1123-20.874Q18.8965-18.6035 23.5352-18.6035Z"/>
  </g>
  <g id="Ultralight-S" transform="matrix(1 0 0 1 508.954 696)">
   <path class="hierarchical-0:secondary SFSymbolsPreview4D4D4D" d="M78.1647-18.6493Q82.6637-18.6493 86.4254-20.9198Q90.1871-23.1903 92.4332-26.9745Q94.6793-30.7587 94.6793-35.257Q94.6793-39.753 92.4332-43.5371Q90.1871-47.3213 86.4254-49.5918Q82.6637-51.8623 78.1647-51.8623Q73.5718-51.8623 69.8105-49.5918Q66.0492-47.3213 63.7802-43.5371Q61.5112-39.753 61.5112-35.257Q61.5112-30.7587 63.7802-26.9745Q66.0492-23.1903 69.8105-20.9198Q73.5718-18.6493 78.1647-18.6493ZM50.7805-47.0032Q55.2795-47.0032 59.0183-49.2722Q62.7571-51.5411 65.0276-55.3043Q67.2981-59.0675 67.2981-63.6086Q67.2981-68.1076 65.0276-71.8918Q62.7571-75.676 59.0183-77.9446Q55.2795-80.2132 50.7805-80.2132Q46.1906-80.2132 42.4065-77.9446Q38.6223-75.676 36.3743-71.8918Q34.1263-68.1076 34.1263-63.6086Q34.1263-59.0675 36.3743-55.3043Q38.6223-51.5411 42.4065-49.2722Q46.1906-47.0032 50.7805-47.0032ZM50.7805 9.7023Q55.2795 9.7023 59.0183 7.43332Q62.7571 5.16434 65.0276 1.37863Q67.2981-2.40707 67.2981-6.90308Q67.2981-11.4471 65.0276-15.2088Q62.7571-18.9705 59.0183-21.2391Q55.2795-23.5077 50.7805-23.5077Q46.1906-23.5077 42.4065-21.2391Q38.6223-18.9705 36.3743-15.2088Q34.1263-11.4471 34.1263-6.90308Q34.1263-2.40707 36.3743 1.37863Q38.6223 5.16434 42.4065 7.43332Q46.1906 9.7023 50.7805 9.7023ZM50.7805-49.2531Q46.7255-49.2531 43.4578-51.1391Q40.1901-53.0251 38.2832-56.2912Q36.3762-59.5573 36.3762-63.6086Q36.3762-67.572 38.2832-70.8416Q40.1901-74.1112 43.4578-76.067Q46.7255-78.0228 50.7805-78.0228Q54.7897-78.0228 58.033-76.067Q61.2762-74.1112 63.2076-70.8416Q65.139-67.572 65.139-63.6086Q65.139-59.5573 63.2076-56.2912Q61.2762-53.0251 58.033-51.1391Q54.7897-49.2531 50.7805-49.2531ZM50.7805 7.45239Q46.7255 7.45239 43.4578 5.5439Q40.1901 3.63541 38.2832 0.391769Q36.3762-2.85187 36.3762-6.90308Q36.3762-10.8665 38.2832-14.1361Q40.1901-17.4057 43.4578-19.3615Q46.7255-21.3173 50.7805-21.3173Q54.7897-21.3173 58.033-19.3615Q61.2762-17.4057 63.2076-14.1361Q65.139-10.8665 65.139-6.90308Q65.139-2.85187 63.2076 0.391769Q61.2762 3.63541 58.033 5.5439Q54.7897 7.45239 50.7805 7.45239ZM78.1647-20.9023Q74.1104-20.9023 70.8427-22.7863Q67.5751-24.6704 65.6662-27.9366Q63.7573-31.2027 63.7573-35.257Q63.7573-39.2181 65.6662-42.4873Q67.5751-45.7565 70.8427-47.7123Q74.1104-49.6681 78.1647-49.6681Q82.2166-49.6681 85.4599-47.7123Q88.7032-45.7565 90.6345-42.4873Q92.5659-39.2181 92.5659-35.257Q92.5659-31.2027 90.6345-27.9366Q88.7032-24.6704 85.4599-22.7863Q82.2166-20.9023 78.1647-20.9023Z"/>
   <path class="hierarchical-1:primary SFSymbolsPreview212121" d="M23.4894-18.6493Q27.9884-18.6493 31.7501-20.9198Q35.5118-23.1903 37.7594-26.9745Q40.007-30.7587 40.007-35.257Q40.007-39.753 37.7594-43.5371Q35.5118-47.3213 31.7501-49.5918Q27.9884-51.8623 23.4894-51.8623Q18.8965-51.8623 15.1123-49.5918Q11.3281-47.3213 9.08203-43.5371Q6.83594-39.753 6.83594-35.257Q6.83594-30.7587 9.08203-26.9745Q11.3281-23.1903 15.1123-20.9198Q18.8965-18.6493 23.4894-18.6493Z"/>
  </g>
 </g>
</svg>
